<mxfile host="app.diagrams.net" agent="Mozilla/5.0 (Windows NT 10.0; Win64; x64) AppleWebKit/537.36 (KHTML, like Gecko) Chrome/136.0.0.0 Safari/537.36" version="26.2.14">
  <diagram name="Page-1" id="c37626ed-c26b-45fb-9056-f9ebc6bb27b6">
    <mxGraphModel dx="827" dy="439" grid="1" gridSize="10" guides="1" tooltips="1" connect="1" arrows="1" fold="1" page="1" pageScale="1" pageWidth="1100" pageHeight="850" background="none" math="0" shadow="0">
      <root>
        <mxCell id="0" />
        <mxCell id="1" parent="0" />
        <mxCell id="1c7a67bf8fd3230f-81" value="" style="whiteSpace=wrap;html=1;rounded=0;shadow=0;comic=0;strokeWidth=1;fontFamily=Verdana;fontSize=14;fillColor=#f5f5f5;strokeColor=none;fontStyle=1;verticalAlign=top;" parent="1" vertex="1">
          <mxGeometry x="620" y="900" width="400" height="430" as="geometry" />
        </mxCell>
        <mxCell id="1c7a67bf8fd3230f-80" value="" style="whiteSpace=wrap;html=1;rounded=0;shadow=0;comic=0;strokeWidth=1;fontFamily=Verdana;fontSize=14;fillColor=#f5f5f5;strokeColor=none;fontStyle=1;verticalAlign=top;" parent="1" vertex="1">
          <mxGeometry x="127" y="900" width="450" height="430" as="geometry" />
        </mxCell>
        <mxCell id="1c7a67bf8fd3230f-56" style="edgeStyle=none;html=1;labelBackgroundColor=none;startFill=0;endArrow=none;endFill=0;strokeWidth=2;fontFamily=Verdana;fontSize=12;entryX=0.5;entryY=0.01;entryDx=0;entryDy=0;entryPerimeter=0;exitX=0.5;exitY=1;exitDx=0;exitDy=0;exitPerimeter=0;" parent="1" source="briRgjn2alWgGOPnFaGy-8" target="briRgjn2alWgGOPnFaGy-9" edge="1">
          <mxGeometry relative="1" as="geometry">
            <mxPoint x="730" y="790" as="sourcePoint" />
            <mxPoint x="854.662576687117" y="856" as="targetPoint" />
          </mxGeometry>
        </mxCell>
        <mxCell id="1c7a67bf8fd3230f-66" style="edgeStyle=none;html=1;labelBackgroundColor=none;startFill=0;endArrow=none;endFill=0;strokeWidth=2;fontFamily=Verdana;fontSize=12;entryX=0.5;entryY=0.01;entryDx=0;entryDy=0;entryPerimeter=0;exitX=0.5;exitY=1;exitDx=0;exitDy=0;exitPerimeter=0;" parent="1" source="briRgjn2alWgGOPnFaGy-8" target="briRgjn2alWgGOPnFaGy-10" edge="1">
          <mxGeometry relative="1" as="geometry">
            <mxPoint x="827.9716312056739" y="942" as="sourcePoint" />
            <mxPoint x="810.0283687943265" y="997" as="targetPoint" />
          </mxGeometry>
        </mxCell>
        <mxCell id="1c7a67bf8fd3230f-67" style="edgeStyle=none;html=1;labelBackgroundColor=none;startFill=0;endArrow=none;endFill=0;strokeWidth=2;fontFamily=Verdana;fontSize=12;entryX=0.5;entryY=0.01;entryDx=0;entryDy=0;entryPerimeter=0;exitX=0.5;exitY=1;exitDx=0;exitDy=0;exitPerimeter=0;" parent="1" source="briRgjn2alWgGOPnFaGy-1" target="briRgjn2alWgGOPnFaGy-5" edge="1">
          <mxGeometry relative="1" as="geometry">
            <mxPoint x="439" y="1040.0000000000002" as="sourcePoint" />
            <mxPoint x="285.99999999999955" y="1040" as="targetPoint" />
          </mxGeometry>
        </mxCell>
        <mxCell id="1c7a67bf8fd3230f-68" style="edgeStyle=none;html=1;labelBackgroundColor=none;startFill=0;endArrow=none;endFill=0;strokeWidth=2;fontFamily=Verdana;fontSize=12;exitX=0.5;exitY=1;exitDx=0;exitDy=0;exitPerimeter=0;entryX=0.5;entryY=0.01;entryDx=0;entryDy=0;entryPerimeter=0;" parent="1" source="briRgjn2alWgGOPnFaGy-1" target="briRgjn2alWgGOPnFaGy-4" edge="1">
          <mxGeometry relative="1" as="geometry">
            <mxPoint x="439" y="1055.0260869565218" as="sourcePoint" />
            <mxPoint x="285.99999999999955" y="1126.8695652173915" as="targetPoint" />
          </mxGeometry>
        </mxCell>
        <mxCell id="1c7a67bf8fd3230f-79" style="edgeStyle=none;html=1;labelBackgroundColor=none;startFill=0;endArrow=none;endFill=0;strokeWidth=2;fontFamily=Verdana;fontSize=12;exitX=0.5;exitY=1;exitDx=0;exitDy=0;exitPerimeter=0;" parent="1" source="briRgjn2alWgGOPnFaGy-1" target="briRgjn2alWgGOPnFaGy-3" edge="1">
          <mxGeometry relative="1" as="geometry">
            <mxPoint x="459.4075235109717" y="1083" as="sourcePoint" />
            <mxPoint x="449.3918918918921" y="1160" as="targetPoint" />
          </mxGeometry>
        </mxCell>
        <mxCell id="briRgjn2alWgGOPnFaGy-1" value="" style="sketch=0;points=[[0.015,0.015,0],[0.985,0.015,0],[0.985,0.985,0],[0.015,0.985,0],[0.25,0,0],[0.5,0,0],[0.75,0,0],[1,0.25,0],[1,0.5,0],[1,0.75,0],[0.75,1,0],[0.5,1,0],[0.25,1,0],[0,0.75,0],[0,0.5,0],[0,0.25,0]];verticalLabelPosition=bottom;html=1;verticalAlign=top;aspect=fixed;align=center;pointerEvents=1;shape=mxgraph.cisco19.rect;prIcon=l2_switch;fillColor=#FAFAFA;strokeColor=#005073;" vertex="1" parent="1">
          <mxGeometry x="330" y="942" width="50" height="50" as="geometry" />
        </mxCell>
        <mxCell id="briRgjn2alWgGOPnFaGy-3" value="" style="shape=mxgraph.cisco.computers_and_peripherals.macintosh;html=1;pointerEvents=1;dashed=0;fillColor=#036897;strokeColor=#ffffff;strokeWidth=2;verticalLabelPosition=bottom;verticalAlign=top;align=center;outlineConnect=0;" vertex="1" parent="1">
          <mxGeometry x="442" y="1165" width="99" height="64" as="geometry" />
        </mxCell>
        <mxCell id="briRgjn2alWgGOPnFaGy-4" value="" style="shape=mxgraph.cisco.computers_and_peripherals.macintosh;html=1;pointerEvents=1;dashed=0;fillColor=#036897;strokeColor=#ffffff;strokeWidth=2;verticalLabelPosition=bottom;verticalAlign=top;align=center;outlineConnect=0;" vertex="1" parent="1">
          <mxGeometry x="305" y="1160" width="99" height="64" as="geometry" />
        </mxCell>
        <mxCell id="briRgjn2alWgGOPnFaGy-5" value="" style="shape=mxgraph.cisco.computers_and_peripherals.macintosh;html=1;pointerEvents=1;dashed=0;fillColor=#036897;strokeColor=#ffffff;strokeWidth=2;verticalLabelPosition=bottom;verticalAlign=top;align=center;outlineConnect=0;" vertex="1" parent="1">
          <mxGeometry x="171" y="1160" width="99" height="64" as="geometry" />
        </mxCell>
        <mxCell id="briRgjn2alWgGOPnFaGy-8" value="" style="sketch=0;points=[[0.015,0.015,0],[0.985,0.015,0],[0.985,0.985,0],[0.015,0.985,0],[0.25,0,0],[0.5,0,0],[0.75,0,0],[1,0.25,0],[1,0.5,0],[1,0.75,0],[0.75,1,0],[0.5,1,0],[0.25,1,0],[0,0.75,0],[0,0.5,0],[0,0.25,0]];verticalLabelPosition=bottom;html=1;verticalAlign=top;aspect=fixed;align=center;pointerEvents=1;shape=mxgraph.cisco19.rect;prIcon=l2_switch;fillColor=#FAFAFA;strokeColor=#005073;" vertex="1" parent="1">
          <mxGeometry x="780" y="948" width="50" height="50" as="geometry" />
        </mxCell>
        <mxCell id="briRgjn2alWgGOPnFaGy-9" value="" style="shape=mxgraph.cisco.computers_and_peripherals.macintosh;html=1;pointerEvents=1;dashed=0;fillColor=#036897;strokeColor=#ffffff;strokeWidth=2;verticalLabelPosition=bottom;verticalAlign=top;align=center;outlineConnect=0;" vertex="1" parent="1">
          <mxGeometry x="681" y="1170" width="99" height="64" as="geometry" />
        </mxCell>
        <mxCell id="briRgjn2alWgGOPnFaGy-10" value="" style="shape=mxgraph.cisco.computers_and_peripherals.macintosh;html=1;pointerEvents=1;dashed=0;fillColor=#036897;strokeColor=#ffffff;strokeWidth=2;verticalLabelPosition=bottom;verticalAlign=top;align=center;outlineConnect=0;container=0;" vertex="1" parent="1">
          <mxGeometry x="859" y="1170" width="99" height="64" as="geometry" />
        </mxCell>
        <mxCell id="briRgjn2alWgGOPnFaGy-13" value="&lt;p data-pm-slice=&quot;1 1 [&amp;quot;table&amp;quot;,{},&amp;quot;tableRow&amp;quot;,{},&amp;quot;tableCell&amp;quot;,{&amp;quot;colspan&amp;quot;:1,&amp;quot;rowspan&amp;quot;:1,&amp;quot;colwidth&amp;quot;:null}]&quot;&gt;&lt;b&gt;PC-1&lt;br&gt;&lt;span style=&quot;background-color: transparent; color: light-dark(rgb(0, 0, 0), rgb(255, 255, 255));&quot;&gt;14.59.1.1/24&lt;/span&gt;&lt;/b&gt;&lt;/p&gt;" style="text;html=1;align=center;verticalAlign=middle;whiteSpace=wrap;rounded=0;" vertex="1" parent="1">
          <mxGeometry x="184" y="1234" width="60" height="30" as="geometry" />
        </mxCell>
        <mxCell id="briRgjn2alWgGOPnFaGy-14" value="&lt;p data-pm-slice=&quot;1 1 [&amp;quot;table&amp;quot;,{},&amp;quot;tableRow&amp;quot;,{},&amp;quot;tableCell&amp;quot;,{&amp;quot;colspan&amp;quot;:1,&amp;quot;rowspan&amp;quot;:1,&amp;quot;colwidth&amp;quot;:null}]&quot;&gt;&lt;b&gt;PC-2&lt;br&gt;&lt;span style=&quot;background-color: transparent; color: light-dark(rgb(0, 0, 0), rgb(255, 255, 255));&quot;&gt;14.59.1.2/24&lt;/span&gt;&lt;/b&gt;&lt;/p&gt;" style="text;html=1;align=center;verticalAlign=middle;whiteSpace=wrap;rounded=0;" vertex="1" parent="1">
          <mxGeometry x="323" y="1234" width="60" height="30" as="geometry" />
        </mxCell>
        <mxCell id="briRgjn2alWgGOPnFaGy-15" value="&lt;p data-pm-slice=&quot;1 1 [&amp;quot;table&amp;quot;,{},&amp;quot;tableRow&amp;quot;,{},&amp;quot;tableCell&amp;quot;,{&amp;quot;colspan&amp;quot;:1,&amp;quot;rowspan&amp;quot;:1,&amp;quot;colwidth&amp;quot;:null}]&quot;&gt;&lt;b&gt;PC-3&lt;br&gt;&lt;span style=&quot;background-color: transparent; color: light-dark(rgb(0, 0, 0), rgb(255, 255, 255));&quot;&gt;14.59.1.3/24&lt;/span&gt;&lt;/b&gt;&lt;/p&gt;" style="text;html=1;align=center;verticalAlign=middle;whiteSpace=wrap;rounded=0;" vertex="1" parent="1">
          <mxGeometry x="460" y="1237" width="60" height="30" as="geometry" />
        </mxCell>
        <mxCell id="briRgjn2alWgGOPnFaGy-16" value="&lt;p data-pm-slice=&quot;1 1 [&amp;quot;table&amp;quot;,{},&amp;quot;tableRow&amp;quot;,{},&amp;quot;tableCell&amp;quot;,{&amp;quot;colspan&amp;quot;:1,&amp;quot;rowspan&amp;quot;:1,&amp;quot;colwidth&amp;quot;:null}]&quot;&gt;&lt;b&gt;PC-4&lt;br&gt;&lt;span style=&quot;background-color: transparent; color: light-dark(rgb(0, 0, 0), rgb(255, 255, 255)); white-space-collapse: preserve;&quot;&gt;14.22.1.1&lt;/span&gt;&lt;span style=&quot;background-color: transparent; color: light-dark(rgb(0, 0, 0), rgb(255, 255, 255));&quot;&gt;/24&lt;/span&gt;&lt;/b&gt;&lt;/p&gt;" style="text;html=1;align=center;verticalAlign=middle;whiteSpace=wrap;rounded=0;" vertex="1" parent="1">
          <mxGeometry x="700.5" y="1245" width="60" height="30" as="geometry" />
        </mxCell>
        <mxCell id="briRgjn2alWgGOPnFaGy-17" value="&lt;p data-pm-slice=&quot;1 1 [&amp;quot;table&amp;quot;,{},&amp;quot;tableRow&amp;quot;,{},&amp;quot;tableCell&amp;quot;,{&amp;quot;colspan&amp;quot;:1,&amp;quot;rowspan&amp;quot;:1,&amp;quot;colwidth&amp;quot;:null}]&quot;&gt;&lt;b&gt;PC-5&lt;br&gt;&lt;span style=&quot;background-color: transparent; color: light-dark(rgb(0, 0, 0), rgb(255, 255, 255)); white-space-collapse: preserve;&quot;&gt;14.22.1.2&lt;/span&gt;&lt;span style=&quot;background-color: transparent; color: light-dark(rgb(0, 0, 0), rgb(255, 255, 255));&quot;&gt;/24&lt;/span&gt;&lt;/b&gt;&lt;/p&gt;" style="text;html=1;align=center;verticalAlign=middle;whiteSpace=wrap;rounded=0;" vertex="1" parent="1">
          <mxGeometry x="889" y="1245" width="60" height="30" as="geometry" />
        </mxCell>
        <mxCell id="briRgjn2alWgGOPnFaGy-18" value="&lt;p data-pm-slice=&quot;1 1 [&amp;quot;table&amp;quot;,{},&amp;quot;tableRow&amp;quot;,{},&amp;quot;tableCell&amp;quot;,{&amp;quot;colspan&amp;quot;:1,&amp;quot;rowspan&amp;quot;:1,&amp;quot;colwidth&amp;quot;:null}]&quot;&gt;&lt;b&gt;Switch-1&lt;/b&gt;&lt;/p&gt;" style="text;html=1;align=center;verticalAlign=middle;whiteSpace=wrap;rounded=0;" vertex="1" parent="1">
          <mxGeometry x="325" y="912" width="60" height="30" as="geometry" />
        </mxCell>
        <mxCell id="briRgjn2alWgGOPnFaGy-20" value="&lt;p data-pm-slice=&quot;1 1 [&amp;quot;table&amp;quot;,{},&amp;quot;tableRow&amp;quot;,{},&amp;quot;tableCell&amp;quot;,{&amp;quot;colspan&amp;quot;:1,&amp;quot;rowspan&amp;quot;:1,&amp;quot;colwidth&amp;quot;:null}]&quot;&gt;&lt;b&gt;Switch-2&lt;/b&gt;&lt;/p&gt;" style="text;html=1;align=center;verticalAlign=middle;whiteSpace=wrap;rounded=0;" vertex="1" parent="1">
          <mxGeometry x="774" y="918" width="60" height="30" as="geometry" />
        </mxCell>
        <mxCell id="briRgjn2alWgGOPnFaGy-21" value="" style="image;html=1;image=img/lib/clip_art/networking/Router_Icon_128x128.png" vertex="1" parent="1">
          <mxGeometry x="765" y="730" width="80" height="80" as="geometry" />
        </mxCell>
        <mxCell id="briRgjn2alWgGOPnFaGy-22" style="edgeStyle=none;html=1;labelBackgroundColor=none;startFill=0;endArrow=none;endFill=0;strokeWidth=2;fontFamily=Verdana;fontSize=12;entryX=0.422;entryY=0.249;entryDx=0;entryDy=0;entryPerimeter=0;" edge="1" parent="1" source="briRgjn2alWgGOPnFaGy-23" target="briRgjn2alWgGOPnFaGy-1">
          <mxGeometry relative="1" as="geometry">
            <mxPoint x="240" y="888.5" as="sourcePoint" />
            <mxPoint x="240" y="1057.5" as="targetPoint" />
          </mxGeometry>
        </mxCell>
        <mxCell id="briRgjn2alWgGOPnFaGy-23" value="" style="image;html=1;image=img/lib/clip_art/networking/Router_Icon_128x128.png" vertex="1" parent="1">
          <mxGeometry x="312" y="730" width="80" height="80" as="geometry" />
        </mxCell>
        <mxCell id="briRgjn2alWgGOPnFaGy-24" style="edgeStyle=none;html=1;labelBackgroundColor=none;startFill=0;endArrow=none;endFill=0;strokeWidth=2;fontFamily=Verdana;fontSize=12;exitX=1;exitY=0.5;exitDx=0;exitDy=0;entryX=0;entryY=0.5;entryDx=0;entryDy=0;" edge="1" parent="1" source="briRgjn2alWgGOPnFaGy-23" target="briRgjn2alWgGOPnFaGy-21">
          <mxGeometry relative="1" as="geometry">
            <mxPoint x="834" y="710" as="sourcePoint" />
            <mxPoint x="645" y="814" as="targetPoint" />
          </mxGeometry>
        </mxCell>
        <mxCell id="briRgjn2alWgGOPnFaGy-25" value="&lt;p data-pm-slice=&quot;1 1 [&amp;quot;table&amp;quot;,{},&amp;quot;tableRow&amp;quot;,{},&amp;quot;tableCell&amp;quot;,{&amp;quot;colspan&amp;quot;:1,&amp;quot;rowspan&amp;quot;:1,&amp;quot;colwidth&amp;quot;:null}]&quot;&gt;&lt;b&gt;Router-1&lt;br&gt;&lt;span style=&quot;white-space-collapse: preserve; background-color: transparent; color: light-dark(rgb(0, 0, 0), rgb(255, 255, 255));&quot;&gt;10.0.0.1&lt;br&gt;&lt;/span&gt;&lt;span style=&quot;white-space-collapse: preserve; background-color: transparent; color: light-dark(rgb(0, 0, 0), rgb(255, 255, 255));&quot;&gt;1 Gb/s Ethernet&lt;/span&gt;&lt;/b&gt;&lt;/p&gt;&lt;p data-pm-slice=&quot;1 1 [&amp;quot;table&amp;quot;,{},&amp;quot;tableRow&amp;quot;,{},&amp;quot;tableCell&amp;quot;,{&amp;quot;colspan&amp;quot;:1,&amp;quot;rowspan&amp;quot;:1,&amp;quot;colwidth&amp;quot;:null}]&quot;&gt;&lt;span style=&quot;white-space-collapse: preserve; background-color: transparent; color: light-dark(rgb(0, 0, 0), rgb(255, 255, 255));&quot;&gt;&lt;/span&gt;&lt;/p&gt;" style="text;html=1;align=center;verticalAlign=middle;whiteSpace=wrap;rounded=0;" vertex="1" parent="1">
          <mxGeometry x="304" y="690" width="96" height="30" as="geometry" />
        </mxCell>
        <mxCell id="briRgjn2alWgGOPnFaGy-26" value="&lt;p data-pm-slice=&quot;1 1 [&amp;quot;table&amp;quot;,{},&amp;quot;tableRow&amp;quot;,{},&amp;quot;tableCell&amp;quot;,{&amp;quot;colspan&amp;quot;:1,&amp;quot;rowspan&amp;quot;:1,&amp;quot;colwidth&amp;quot;:null}]&quot;&gt;&lt;b&gt;Router-2&lt;br&gt;&lt;span style=&quot;white-space-collapse: preserve; background-color: transparent; color: light-dark(rgb(0, 0, 0), rgb(255, 255, 255));&quot;&gt;10.0.0.2&lt;br&gt;&lt;/span&gt;&lt;span style=&quot;white-space-collapse: preserve; background-color: transparent; color: light-dark(rgb(0, 0, 0), rgb(255, 255, 255));&quot;&gt;1 Gb/s Ethernet&lt;/span&gt;&lt;/b&gt;&lt;/p&gt;&lt;p data-pm-slice=&quot;1 1 [&amp;quot;table&amp;quot;,{},&amp;quot;tableRow&amp;quot;,{},&amp;quot;tableCell&amp;quot;,{&amp;quot;colspan&amp;quot;:1,&amp;quot;rowspan&amp;quot;:1,&amp;quot;colwidth&amp;quot;:null}]&quot;&gt;&lt;span style=&quot;white-space-collapse: preserve; background-color: transparent; color: light-dark(rgb(0, 0, 0), rgb(255, 255, 255));&quot;&gt;&lt;/span&gt;&lt;/p&gt;" style="text;html=1;align=center;verticalAlign=middle;whiteSpace=wrap;rounded=0;" vertex="1" parent="1">
          <mxGeometry x="750.5" y="700" width="109" height="30" as="geometry" />
        </mxCell>
        <mxCell id="briRgjn2alWgGOPnFaGy-28" style="edgeStyle=none;html=1;labelBackgroundColor=none;startFill=0;endArrow=none;endFill=0;strokeWidth=2;fontFamily=Verdana;fontSize=12;entryX=0.5;entryY=1;entryDx=0;entryDy=0;" edge="1" parent="1" source="briRgjn2alWgGOPnFaGy-21" target="briRgjn2alWgGOPnFaGy-20">
          <mxGeometry relative="1" as="geometry">
            <mxPoint x="804" y="900" as="sourcePoint" />
            <mxPoint x="520" y="984" as="targetPoint" />
          </mxGeometry>
        </mxCell>
        <mxCell id="briRgjn2alWgGOPnFaGy-29" value="&lt;p style=&quot;white-space-collapse: preserve;&quot; dir=&quot;auto&quot;&gt;&lt;b&gt;14.59.1.254/24&lt;/b&gt;&lt;/p&gt;&lt;p data-pm-slice=&quot;1 1 [&amp;quot;table&amp;quot;,{},&amp;quot;tableRow&amp;quot;,{},&amp;quot;tableCell&amp;quot;,{&amp;quot;colspan&amp;quot;:1,&amp;quot;rowspan&amp;quot;:1,&amp;quot;colwidth&amp;quot;:null}]&quot;&gt;&lt;span style=&quot;white-space-collapse: preserve; background-color: transparent; color: light-dark(rgb(0, 0, 0), rgb(255, 255, 255));&quot;&gt;&lt;/span&gt;&lt;/p&gt;" style="text;html=1;align=center;verticalAlign=middle;whiteSpace=wrap;rounded=0;" vertex="1" parent="1">
          <mxGeometry x="260" y="790" width="96" height="30" as="geometry" />
        </mxCell>
        <mxCell id="briRgjn2alWgGOPnFaGy-30" value="&lt;p style=&quot;white-space-collapse: preserve;&quot; dir=&quot;auto&quot;&gt;&lt;b&gt;&lt;span style=&quot;background-color: transparent; color: light-dark(rgb(0, 0, 0), rgb(255, 255, 255));&quot;&gt;14.22.1.254&lt;/span&gt;/24&lt;/b&gt;&lt;/p&gt;&lt;p data-pm-slice=&quot;1 1 [&amp;quot;table&amp;quot;,{},&amp;quot;tableRow&amp;quot;,{},&amp;quot;tableCell&amp;quot;,{&amp;quot;colspan&amp;quot;:1,&amp;quot;rowspan&amp;quot;:1,&amp;quot;colwidth&amp;quot;:null}]&quot;&gt;&lt;span style=&quot;white-space-collapse: preserve; background-color: transparent; color: light-dark(rgb(0, 0, 0), rgb(255, 255, 255));&quot;&gt;&lt;/span&gt;&lt;/p&gt;" style="text;html=1;align=center;verticalAlign=middle;whiteSpace=wrap;rounded=0;" vertex="1" parent="1">
          <mxGeometry x="710" y="800" width="96" height="30" as="geometry" />
        </mxCell>
      </root>
    </mxGraphModel>
  </diagram>
</mxfile>
